
        <svg xmlns="http://www.w3.org/2000/svg" xmlns:xlink="http://www.w3.org/1999/xlink" version="1.1" width="3149.966862431122" 
        height="764.8309983987228" viewBox="0 0 3149.966862431122 764.8309983987228">
			
			<g transform="scale(7.498343121556107) translate(10, 10)">
				<defs id="SvgjsDefs3925"></defs><g id="SvgjsG3926" featureKey="symbolGroupContainer" transform="matrix(1,0,0,1,0,0)" fill="#D61C4E"><rect width="95" height="82" rx="8"></rect></g><g id="SvgjsG3927" featureKey="symbolFeature-0" transform="matrix(0.5952919830823816,0,0,0.5952919830823816,18.83505189962948,12.328998397772345)" fill="#FEF9A7"><path xmlns="http://www.w3.org/2000/svg" d="M28.036,91.512c-0.38,0-0.764-0.104-1.096-0.324c-0.708-0.467-1.048-1.332-0.844-2.155l3.552-14.353H15.872  c-0.944,0-1.764-0.656-1.956-1.584L2,16.368c-0.116-0.556,0.004-1.132,0.34-1.588c0.332-0.456,0.84-0.752,1.404-0.813L91.828,4.5  c0.607-0.072,1.22,0.156,1.648,0.592c0.428,0.436,0.631,1.056,0.547,1.66l-7.836,58.191c-0.136,0.992-0.979,1.736-1.983,1.736  H61.216L29.256,91.1C28.892,91.376,28.464,91.512,28.036,91.512L28.036,91.512z"></path></g><g id="SvgjsG3928" featureKey="sloganFeature-0" transform="matrix(1.0539756356132672,0,0,1.0539756356132672,114.78920507390724,58.32961146235743)" fill="#D61C4E"><path d="M4.68 14.86 l-4.48 -9.24 q0.84 -0.12 1.68 -0.12 q0.76 0 1.52 0.12 l2.84 6.52 l2.8 -6.52 q0.74 -0.12 1.52 -0.12 q0.72 0 1.54 0.12 l-4.48 9.24 l0 5.16 q-0.4 0.06 -0.76 0.08 t-0.71 0.02 t-0.72 -0.02 t-0.75 -0.08 l0 -5.16 z M19.560000000000002 20.24 q-1.62 0 -2.8 -0.56 t-1.94 -1.55 t-1.13 -2.34 t-0.37 -2.95 t0.37 -2.97 t1.13 -2.37 t1.94 -1.56 t2.8 -0.56 t2.8 0.56 t1.94 1.56 t1.13 2.37 t0.37 2.97 t-0.37 2.95 t-1.13 2.34 t-1.94 1.55 t-2.8 0.56 z M19.560000000000002 17.8 q3.1 0 3.1 -4.96 q0 -2.48 -0.75 -3.72 t-2.33 -1.24 q-3.14 0 -3.14 4.96 t3.12 4.96 z M28.14 5.619999999999999 q0.38 -0.06 0.74 -0.08 t0.72 -0.02 t0.72 0.02 t0.74 0.08 l0 7.46 q0 1.22 0.09 2.09 t0.36 1.44 t0.76 0.84 t1.27 0.27 t1.26 -0.27 t0.75 -0.84 t0.36 -1.44 t0.09 -2.09 l0 -7.46 q0.4 -0.06 0.76 -0.08 t0.71 -0.02 t0.72 0.02 t0.75 0.08 l0 8.08 q0 1.46 -0.24 2.67 t-0.86 2.07 t-1.66 1.33 t-2.64 0.47 t-2.64 -0.47 t-1.66 -1.33 t-0.86 -2.07 t-0.24 -2.67 l0 -8.08 z M41.78 5.619999999999999 q0.88 -0.1 1.65 -0.17 t1.71 -0.07 q1.1 0 2.17 0.2 t1.93 0.71 t1.39 1.38 t0.53 2.21 q0 0.8 -0.2 1.41 t-0.51 1.07 t-0.67 0.79 t-0.68 0.53 l-0.34 0.22 l3.5 6.08 l-0.84 0.08 q-0.44 0.04 -0.9 0.04 q-0.76 0 -1.5 -0.12 l-3.76 -6.68 l0.48 -0.24 q0.28 -0.14 0.68 -0.36 t0.77 -0.55 t0.63 -0.8 t0.26 -1.11 q0 -1.26 -0.72 -1.85 t-1.86 -0.59 q-0.44 0 -0.8 0.06 l0 12.14 l-0.72 0.06 q-0.36 0.04 -0.7 0.04 t-0.72 -0.02 t-0.78 -0.08 l0 -14.38 z M64.12 20.24 q-1.62 0 -2.8 -0.56 t-1.94 -1.55 t-1.13 -2.34 t-0.37 -2.95 t0.37 -2.97 t1.13 -2.37 t1.94 -1.56 t2.8 -0.56 t2.8 0.56 t1.94 1.56 t1.13 2.37 t0.37 2.97 t-0.37 2.95 t-1.13 2.34 t-1.94 1.55 t-2.8 0.56 z M64.12 17.8 q3.1 0 3.1 -4.96 q0 -2.48 -0.75 -3.72 t-2.33 -1.24 q-3.14 0 -3.14 4.96 t3.12 4.96 z M72.78 5.5600000000000005 q0.92 -0.08 1.86 -0.13 t1.92 -0.05 t2.01 0.2 t1.86 0.75 t1.35 1.53 t0.52 2.54 t-0.52 2.53 t-1.34 1.53 t-1.83 0.76 t-1.99 0.2 l-0.48 -0.02 q-0.24 0 -0.44 -0.02 l0 4.62 q-0.38 0.06 -0.74 0.08 t-0.69 0.02 t-0.71 -0.02 t-0.78 -0.08 l0 -14.44 z M75.69999999999999 12.96 q0.24 0.04 0.46 0.04 l0.5 0 q0.5 0 0.98 -0.13 t0.85 -0.43 t0.59 -0.79 t0.22 -1.22 t-0.22 -1.24 t-0.59 -0.82 t-0.85 -0.44 t-0.98 -0.13 l-0.4 0 q-0.2 0.02 -0.56 0.06 l0 5.1 z M84.44 5.619999999999999 q0.74 -0.12 1.46 -0.12 t1.48 0.12 l0 14.38 q-0.76 0.12 -1.48 0.12 t-1.46 -0.12 l0 -14.38 z M90.17999999999999 5.619999999999999 q0.62 -0.12 1.2 -0.12 t1.22 0.12 l5.56 9.16 l0 -9.16 q0.72 -0.12 1.36 -0.12 t1.22 0.12 l0 14.38 q-0.64 0.12 -1.18 0.12 t-1.2 -0.12 l-5.6 -9.14 l0 9.14 q-0.64 0.12 -1.3 0.12 t-1.28 -0.12 l0 -14.38 z M103.53999999999999 5.619999999999999 q0.74 -0.12 1.46 -0.12 t1.48 0.12 l0 14.38 q-0.76 0.12 -1.48 0.12 t-1.46 -0.12 l0 -14.38 z M115.13999999999999 20.24 q-1.62 0 -2.8 -0.56 t-1.94 -1.55 t-1.13 -2.34 t-0.37 -2.95 t0.37 -2.97 t1.13 -2.37 t1.94 -1.56 t2.8 -0.56 t2.8 0.56 t1.94 1.56 t1.13 2.37 t0.37 2.97 t-0.37 2.95 t-1.13 2.34 t-1.94 1.55 t-2.8 0.56 z M115.13999999999999 17.8 q3.1 0 3.1 -4.96 q0 -2.48 -0.75 -3.72 t-2.33 -1.24 q-3.14 0 -3.14 4.96 t3.12 4.96 z M123.79999999999998 5.619999999999999 q0.62 -0.12 1.2 -0.12 t1.22 0.12 l5.56 9.16 l0 -9.16 q0.72 -0.12 1.36 -0.12 t1.22 0.12 l0 14.38 q-0.64 0.12 -1.18 0.12 t-1.2 -0.12 l-5.6 -9.14 l0 9.14 q-0.64 0.12 -1.3 0.12 t-1.28 -0.12 l0 -14.38 z M141.96 5.619999999999999 q0.8 -0.12 1.56 -0.12 t1.52 0.12 l3.3 8.24 l3.4 -8.24 q0.62 -0.12 1.38 -0.12 t1.46 0.12 l0.68 14.38 q-0.76 0.12 -1.44 0.12 t-1.34 -0.12 l-0.36 -9.76 l-2.92 6.76 q-0.28 0.04 -0.58 0.07 t-0.58 0.03 t-0.54 -0.02 t-0.54 -0.08 l-2.72 -6.9 l-0.28 9.9 q-0.64 0.12 -1.26 0.12 t-1.3 -0.12 z M161.24 5.619999999999999 q0.42 -0.06 0.8 -0.09 t0.84 -0.03 q0.4 0 0.78 0.03 t0.84 0.09 l4.5 14.38 q-0.82 0.12 -1.59 0.12 t-1.49 -0.12 l-0.8 -2.88 l-4.76 0 l-0.82 2.88 q-0.72 0.12 -1.38 0.12 q-0.74 0 -1.46 -0.12 z M164.44 14.7 l-1.66 -6.04 l-1.74 6.04 l3.4 0 z M173.42 8.1 l-3.58 0 q-0.12 -0.6 -0.12 -1.24 t0.12 -1.24 l10.1 0 q0.12 0.6 0.12 1.24 t-0.12 1.24 l-3.58 0 l0 11.9 l-0.72 0.06 q-0.36 0.04 -0.7 0.04 t-0.73 -0.02 t-0.79 -0.08 l0 -11.9 z M184.76 8.1 l-3.58 0 q-0.12 -0.6 -0.12 -1.24 t0.12 -1.24 l10.1 0 q0.12 0.6 0.12 1.24 t-0.12 1.24 l-3.58 0 l0 11.9 l-0.72 0.06 q-0.36 0.04 -0.7 0.04 t-0.73 -0.02 t-0.79 -0.08 l0 -11.9 z M193.3 5.619999999999999 l8.16 0 q0.12 0.6 0.12 1.24 t-0.12 1.24 l-5.24 0 l0 3.12 l4.16 0 q0.12 0.64 0.12 1.26 t-0.12 1.24 l-4.16 0 l0 3.8 l5.38 0 q0.12 0.6 0.12 1.24 t-0.12 1.24 l-8.3 0 l0 -14.38 z M204.06 5.619999999999999 q0.88 -0.1 1.65 -0.17 t1.71 -0.07 q1.1 0 2.17 0.2 t1.93 0.71 t1.39 1.38 t0.53 2.21 q0 0.8 -0.2 1.41 t-0.51 1.07 t-0.67 0.79 t-0.68 0.53 l-0.34 0.22 l3.5 6.08 l-0.84 0.08 q-0.44 0.04 -0.9 0.04 q-0.76 0 -1.5 -0.12 l-3.76 -6.68 l0.48 -0.24 q0.28 -0.14 0.68 -0.36 t0.77 -0.55 t0.63 -0.8 t0.26 -1.11 q0 -1.26 -0.72 -1.85 t-1.86 -0.59 q-0.44 0 -0.8 0.06 l0 12.14 l-0.72 0.06 q-0.36 0.04 -0.7 0.04 t-0.72 -0.02 t-0.78 -0.08 l0 -14.38 z M218.76000000000002 13.34 q-0.68 -0.26 -1.22 -0.57 t-0.92 -0.74 t-0.59 -1.03 t-0.21 -1.44 q0 -1.02 0.35 -1.8 t0.99 -1.31 t1.54 -0.8 t2.02 -0.27 q1.02 0 1.91 0.18 t1.87 0.52 q-0.12 1.16 -0.64 2.28 l-0.6 -0.24 q-0.32 -0.12 -0.67 -0.2 t-0.79 -0.13 t-1 -0.05 q-0.34 0 -0.69 0.06 t-0.63 0.22 t-0.46 0.47 t-0.18 0.81 q0 0.4 0.14 0.67 t0.38 0.46 t0.54 0.31 l0.6 0.26 l1.2 0.46 q0.76 0.3 1.38 0.62 t1.05 0.79 t0.67 1.14 t0.24 1.67 t-0.37 1.84 t-1.07 1.44 t-1.73 0.94 t-2.37 0.34 q-0.66 0 -1.18 -0.04 t-0.99 -0.13 t-0.93 -0.23 t-0.96 -0.34 q0.06 -0.58 0.22 -1.21 t0.38 -1.27 q0.84 0.34 1.58 0.51 t1.58 0.17 q1.26 0 1.98 -0.47 t0.72 -1.43 q0 -0.48 -0.17 -0.8 t-0.44 -0.54 t-0.61 -0.37 t-0.7 -0.29 z"></path></g><g id="SvgjsG3929" featureKey="nameLeftFeature-0" transform="matrix(1.039812107791648,0,0,1.039812107791648,112.92037628023776,-7.309916496308803)" fill="#D61C4E"><path d="M23.08 17.36 c0.84 2.48 1.04 5.16 1.04 7.8 c0 2.2 -0.4 4.32 -0.96 6.44 c-0.72 2.52 -1.92 4.8 -4.08 6.28 c-1.6 1.16 -3.28 1.92 -5.24 2.12 c-0.28 0 -0.52 0.04 -0.8 0.04 c-0.24 0 -0.48 -0.04 -0.76 -0.04 c-1.96 -0.2 -3.64 -0.96 -5.28 -2.12 c-2.12 -1.48 -3.36 -3.76 -4.04 -6.28 c-0.6 -2.12 -0.96 -4.24 -0.96 -6.44 c0 -2.64 0.2 -5.32 1.04 -7.8 c1.48 -4.28 5.56 -7.32 10 -7.4 c4.44 0.08 8.52 3.12 10.04 7.4 z M19.2 28.08 c0.4 -2.44 0.24 -4.92 -0.24 -7.36 c-0.48 -2.2 -1.44 -4.36 -3.28 -5.68 c-0.32 -0.24 -0.68 -0.44 -1.04 -0.56 c-0.52 -0.24 -1.08 -0.32 -1.6 -0.32 s-1.04 0.08 -1.56 0.32 c-0.4 0.12 -0.72 0.32 -1.04 0.56 c-1.88 1.32 -2.84 3.48 -3.28 5.68 c-0.48 2.44 -0.64 4.92 -0.24 7.36 c0.4 2.2 1.2 5.16 3.28 6.28 c0.88 0.48 1.84 0.8 2.84 0.84 c1 -0.04 2 -0.36 2.88 -0.84 c2.08 -1.12 2.88 -4.08 3.28 -6.28 z M28.16 15.239999999999998 c0.04 2.36 0.04 22.4 0.04 24.04 c0 0.6 0.08 0.72 0.68 0.72 c1.36 0 1.36 0.04 2.72 0 c0.28 0 0.76 0 1 -0.12 c0.28 -0.12 0.12 -9.56 0.12 -10.08 c0 -0.56 1.12 -0.44 1.44 -0.44 c6.68 0 8.52 -4.8 8.52 -8.88 c0 -3.68 -0.72 -10.48 -9.04 -10.48 c-1.44 0 -2.92 0.04 -4.32 0.04 c-0.32 0 -0.72 -0.04 -1 0.16 c-0.32 0.24 -0.2 3.8 -0.16 5.04 z M32.76 23.48 c0 -0.88 -0.04 -6.12 0 -7.72 c0 -0.24 -0.04 -0.52 0 -0.8 c0.12 -0.44 0.64 -0.44 1.04 -0.4 c2.32 0.16 3.64 2.2 3.84 4.36 c0.16 1.56 -0.04 3.88 -1.16 5.12 c-0.8 0.84 -1.84 1.36 -3.2 1.36 c-0.28 0 -0.56 -0.32 -0.56 -0.6 c0 -0.44 0 -0.88 0.04 -1.32 z M52.2 29.68 c-0.12 -4.56 -0.08 -9.4 -0.04 -13.92 c0 -1.4 -0.08 -2.92 -0.08 -4.32 c0 -1.52 -0.6 -1.44 -1.4 -1.48 c-1.16 -0.04 -1.68 -0.04 -2.84 -0.04 c-0.76 -0.04 -1.08 0.16 -1.08 0.92 c0 3.92 -0.12 15 -0.08 16.6 s0.2 8.88 0.12 10.48 c-0.04 0.56 0 1.12 0.04 1.68 c0.04 0.2 0.16 0.4 0.48 0.4 c1.32 -0.08 2.56 -0.08 3.88 -0.12 c0.48 -0.04 0.88 -0.16 1.08 -0.68 c0.04 -0.28 -0.08 -7.6 -0.08 -9.52 z M73.32 10.920000000000002 c0.12 0.56 0.04 27.2 0.04 27.88 c0 1.2 -0.44 1.16 -1.24 1.16 c-1.2 0 -2.88 0.2 -3.24 -0.2 c-0.32 -0.28 -6.24 -14.56 -7.08 -16.36 c-0.08 -0.16 -0.28 -0.56 -0.44 -0.48 c-0.2 0.08 -0.12 0.36 -0.12 0.52 c-0.04 1.4 0.2 13.48 0.2 15.4 c0 0.96 -0.04 1.12 -0.84 1.12 l-2 0 c-0.52 0 -1.16 -0.04 -1.68 0.04 c-0.4 0 -0.6 -0.12 -0.64 -0.52 l0 -3.16 c0.08 -3.36 0 -23.28 0 -24.76 c0 -1.28 0.36 -1.52 1.64 -1.52 c0.88 -0.04 1.76 -0.04 2.64 -0.04 c0.28 0 0.44 0.04 0.6 0.4 c1.08 2.52 5.68 14.08 6.4 15.48 c0.12 0.28 0.56 1.4 0.8 1.52 l0.04 0 c0.16 -0.16 0.12 -0.96 0.12 -1.2 c0 -0.6 -0.32 -14.64 -0.32 -14.92 c0 -0.4 -0.12 -0.76 0.08 -1.04 c0.12 -0.16 0.64 -0.2 0.84 -0.24 c1.12 -0.08 2.44 0.04 3.56 0 c0.56 0 0.52 0.4 0.64 0.92 z M82.92 29.68 c-0.12 -4.56 -0.08 -9.4 -0.04 -13.92 c0 -1.4 -0.08 -2.92 -0.08 -4.32 c0 -1.52 -0.6 -1.44 -1.4 -1.48 c-1.16 -0.04 -1.68 -0.04 -2.84 -0.04 c-0.76 -0.04 -1.08 0.16 -1.08 0.92 c0 3.92 -0.12 15 -0.08 16.6 s0.2 8.88 0.12 10.48 c-0.04 0.56 0 1.12 0.04 1.68 c0.04 0.2 0.16 0.4 0.48 0.4 c1.32 -0.08 2.56 -0.08 3.88 -0.12 c0.48 -0.04 0.88 -0.16 1.08 -0.68 c0.04 -0.28 -0.08 -7.6 -0.08 -9.52 z M108.08 17.36 c0.84 2.48 1.04 5.16 1.04 7.8 c0 2.2 -0.4 4.32 -0.96 6.44 c-0.72 2.52 -1.92 4.8 -4.08 6.28 c-1.6 1.16 -3.28 1.92 -5.24 2.12 c-0.28 0 -0.52 0.04 -0.8 0.04 c-0.24 0 -0.48 -0.04 -0.76 -0.04 c-1.96 -0.2 -3.64 -0.96 -5.28 -2.12 c-2.12 -1.48 -3.36 -3.76 -4.04 -6.28 c-0.6 -2.12 -0.96 -4.24 -0.96 -6.44 c0 -2.64 0.2 -5.32 1.04 -7.8 c1.48 -4.28 5.56 -7.32 10 -7.4 c4.44 0.08 8.52 3.12 10.04 7.4 z M104.2 28.08 c0.4 -2.44 0.24 -4.92 -0.24 -7.36 c-0.48 -2.2 -1.44 -4.36 -3.28 -5.68 c-0.32 -0.24 -0.68 -0.44 -1.04 -0.56 c-0.52 -0.24 -1.08 -0.32 -1.6 -0.32 s-1.04 0.08 -1.56 0.32 c-0.4 0.12 -0.72 0.32 -1.04 0.56 c-1.88 1.32 -2.84 3.48 -3.28 5.68 c-0.48 2.44 -0.64 4.92 -0.24 7.36 c0.4 2.2 1.2 5.16 3.28 6.28 c0.88 0.48 1.84 0.8 2.84 0.84 c1 -0.04 2 -0.36 2.88 -0.84 c2.08 -1.12 2.88 -4.08 3.28 -6.28 z M130.16 10.920000000000002 c0.12 0.56 0.04 27.2 0.04 27.88 c0 1.2 -0.44 1.16 -1.24 1.16 c-1.2 0 -2.88 0.2 -3.24 -0.2 c-0.32 -0.28 -6.24 -14.56 -7.08 -16.36 c-0.08 -0.16 -0.28 -0.56 -0.44 -0.48 c-0.2 0.08 -0.12 0.36 -0.12 0.52 c-0.04 1.4 0.2 13.48 0.2 15.4 c0 0.96 -0.04 1.12 -0.84 1.12 l-2 0 c-0.52 0 -1.16 -0.04 -1.68 0.04 c-0.4 0 -0.6 -0.12 -0.64 -0.52 l0 -3.16 c0.08 -3.36 0 -23.28 0 -24.76 c0 -1.28 0.36 -1.52 1.64 -1.52 c0.88 -0.04 1.76 -0.04 2.64 -0.04 c0.28 0 0.44 0.04 0.6 0.4 c1.08 2.52 5.68 14.08 6.4 15.48 c0.12 0.28 0.56 1.4 0.8 1.52 l0.04 0 c0.16 -0.16 0.12 -0.96 0.12 -1.2 c0 -0.6 -0.32 -14.64 -0.32 -14.92 c0 -0.4 -0.12 -0.76 0.08 -1.04 c0.12 -0.16 0.64 -0.2 0.84 -0.24 c1.12 -0.08 2.44 0.04 3.56 0 c0.56 0 0.52 0.4 0.64 0.92 z M144.28 15.239999999999998 c0.04 2.36 0.04 22.4 0.04 24.04 c0 0.6 0.08 0.72 0.68 0.72 c1.36 0 1.36 0.04 2.72 0 c0.28 0 0.76 0 1 -0.12 c0.28 -0.12 0.12 -9.56 0.12 -10.08 c0 -0.56 1.12 -0.44 1.44 -0.44 c6.68 0 8.52 -4.8 8.52 -8.88 c0 -3.68 -0.72 -10.48 -9.04 -10.48 c-1.44 0 -2.92 0.04 -4.32 0.04 c-0.32 0 -0.72 -0.04 -1 0.16 c-0.32 0.24 -0.2 3.8 -0.16 5.04 z M148.88 23.48 c0 -0.88 -0.04 -6.12 0 -7.72 c0 -0.24 -0.04 -0.52 0 -0.8 c0.12 -0.44 0.64 -0.44 1.04 -0.4 c2.32 0.16 3.64 2.2 3.84 4.36 c0.16 1.56 -0.04 3.88 -1.16 5.12 c-0.8 0.84 -1.84 1.36 -3.2 1.36 c-0.28 0 -0.56 -0.32 -0.56 -0.6 c0 -0.44 0 -0.88 0.04 -1.32 z M183.88 17.36 c0.84 2.48 1.04 5.16 1.04 7.8 c0 2.2 -0.4 4.32 -0.96 6.44 c-0.72 2.52 -1.92 4.8 -4.08 6.28 c-1.6 1.16 -3.28 1.92 -5.24 2.12 c-0.28 0 -0.52 0.04 -0.8 0.04 c-0.24 0 -0.48 -0.04 -0.76 -0.04 c-1.96 -0.2 -3.64 -0.96 -5.28 -2.12 c-2.12 -1.48 -3.36 -3.76 -4.04 -6.28 c-0.6 -2.12 -0.96 -4.24 -0.96 -6.44 c0 -2.64 0.2 -5.32 1.04 -7.8 c1.48 -4.28 5.56 -7.32 10 -7.4 c4.44 0.08 8.52 3.12 10.04 7.4 z M180 28.08 c0.4 -2.44 0.24 -4.92 -0.24 -7.36 c-0.48 -2.2 -1.44 -4.36 -3.28 -5.68 c-0.32 -0.24 -0.68 -0.44 -1.04 -0.56 c-0.52 -0.24 -1.08 -0.32 -1.6 -0.32 s-1.04 0.08 -1.56 0.32 c-0.4 0.12 -0.72 0.32 -1.04 0.56 c-1.88 1.32 -2.84 3.48 -3.28 5.68 c-0.48 2.44 -0.64 4.92 -0.24 7.36 c0.4 2.2 1.2 5.16 3.28 6.28 c0.88 0.48 1.84 0.8 2.84 0.84 c1 -0.04 2 -0.36 2.88 -0.84 c2.08 -1.12 2.88 -4.08 3.28 -6.28 z M193.88000000000002 37 c0 -1.04 0 -7.6 0.04 -8.12 c0.04 -0.12 0.12 -0.36 0.28 -0.36 s0.24 0.08 0.28 0.2 c1.6 3.12 3 6.24 4.44 9.28 c0.2 0.44 0.64 1.72 0.76 1.84 c0.16 0.24 0.44 0.16 0.68 0.16 l4.4 0.04 c0.52 0 0.64 -0.32 0.52 -0.76 c-0.32 -1.2 -2.6 -5.44 -3.12 -6.48 c-0.36 -0.8 -2.76 -5.44 -2.84 -5.8 c-0.08 -0.16 0.52 -0.44 0.6 -0.56 c1.92 -1.72 3.64 -3.48 4 -6.16 c0.4 -2.64 -0.2 -5.52 -1.92 -7.64 c-1.32 -1.56 -3.04 -2.48 -5.08 -2.6 c-1.24 -0.08 -2.44 0.04 -3.68 0 c-1.08 -0.04 -1.84 -0.04 -3.2 -0.04 c-0.64 0 -1.04 0.36 -1.08 1.04 l0 0.48 c-0.08 3.08 0 6.16 0.04 9.2 c0 4.64 -0.08 16.88 -0.08 18.64 c0 0.52 0.08 0.64 0.56 0.64 c0.28 0 0.6 0.04 0.88 0.04 c1.12 0 1.8 -0.04 2.96 -0.04 c0.88 0 0.56 -1.44 0.56 -3 z M193.88000000000002 21.4 l0.04 -4.04 c0.04 -0.6 -0.16 -1.8 0.4 -2.24 c0.76 -0.56 2.32 0 3 0.48 c2 1.36 1.84 4.72 0.76 6.6 c-0.52 0.88 -1.4 1.4 -2.4 1.68 c-0.6 0.16 -1.72 0.36 -1.76 -0.6 c0 -0.64 -0.04 -1.88 -0.04 -1.88 z M214.40000000000003 35.64 c0.04 1.24 0.04 2.48 0.08 3.72 c0 0.56 0.04 0.64 0.6 0.64 l3.6 0 c0.76 0 0.6 -1.28 0.56 -1.96 l0.12 -22.4 c0 -0.6 0.2 -0.8 1 -0.8 l3.52 0 c0.84 0 0.64 -1.44 0.64 -2.44 c0 -0.88 0.32 -2.4 -0.64 -2.4 c-0.68 0 -7.2 0 -9.88 0.04 c-1.32 0 -2.4 -0.04 -3.72 -0.04 c-1 0 -0.96 0.8 -0.96 2.56 c0 1.12 -0.04 2.24 0.92 2.24 c0.56 0 2.84 0 3.48 0.04 c0.4 0 0.68 0.12 0.76 0.56 c0 0.12 0.04 0.24 0.04 0.36 c0 2.88 -0.2 16.28 -0.12 19.88 z"></path></g><g id="SvgjsG3930" featureKey="inlineSymbolFeature-0" transform="matrix(0.39155206522767005,0,0,0.39155206522767005,347.0844793477233,-0.9155206522767005)" fill="#D61C4E"><path xmlns="http://www.w3.org/2000/svg" d="M50,10L10,90h80L50,10z M50,24.909L72.546,70H42.36l3.333-6.667h16.064L50,39.814L31.575,76.667h44.304l3.333,6.666H20.788  L50,24.909z"></path></g><g id="SvgjsG3931" featureKey="nameRightFeature-0" transform="matrix(1.0443503182532254,0,0,1.0443503182532254,384.91601503281015,-7.443509158352709)" fill="#D61C4E"><path d="M2 13.920000000000002 c-0.04 2.48 0.2 20.6 0.16 21.92 c0 1.24 0 2.48 0.04 3.72 c0 0.2 0.12 0.4 0.32 0.4 c2.8 0.12 5.56 -0.12 8.36 -0.08 c0.92 0.04 1.84 0 2.72 0 c0.88 -0.04 0.96 -0.4 0.92 -1.12 c-0.04 -1.12 -0.04 -2.12 -0.04 -3.2 c-0.04 -0.56 -0.36 -0.76 -0.84 -0.76 c-1.64 0.04 -3.28 -0.04 -4.92 0.04 c-0.28 0.04 -0.56 0.04 -0.84 0.04 c-0.48 -0.04 -0.6 -0.16 -0.64 -0.68 l0 -0.6 c-0.12 -3.32 0.12 -6.76 0.12 -10.08 c-0.04 -2.8 0 -5.32 -0.04 -7.8 c0 -1.08 0 -2.16 -0.04 -3.2 c-0.04 -0.64 0 -1.32 -0.16 -1.96 c-0.08 -0.24 -0.2 -0.56 -0.48 -0.56 l-3.76 0 c-0.64 0 -0.84 0.44 -0.88 1.08 l0 2.84 z"></path></g>
			</g>
		</svg>
	